<!-- icon666.com - MILLIONS vector ICONS FREE --><svg viewBox="0 0 24 24" xmlns="http://www.w3.org/2000/svg"><g id="Layer_3" data-name="Layer 3"><path d="m12 1a11 11 0 1 0 11 11 11 11 0 0 0 -11-11zm-2.3535 10.6465a.5.5 0 0 1 .707 0l1.1465 1.1465v-5.793a.5.5 0 0 1 1 0v5.793l1.1465-1.1465a.5.5 0 0 1 .707.707l-1.9994 1.9994a.5016.5016 0 0 1 -.7082 0l-1.9994-1.9994a.5.5 0 0 1 0-.707zm7.8535 3.3535a2.5026 2.5026 0 0 1 -2.5 2.5h-6a2.5026 2.5026 0 0 1 -2.5-2.5v-1a.5.5 0 0 1 1 0v1a1.5017 1.5017 0 0 0 1.5 1.5h6a1.5017 1.5017 0 0 0 1.5-1.5v-1a.5.5 0 0 1 1 0z" fill="#f44336"></path></g></svg>